<svg width="60" height="46" viewBox="0 0 60 46" fill="none" xmlns="http://www.w3.org/2000/svg">
<g clip-path="url(#clip0_238_1553)">
<g clip-path="url(#clip1_238_1553)">
<path fill-rule="evenodd" clip-rule="evenodd" d="M0 0.46875H85.5V3.9375H0V0.46875ZM0 7.39688H85.5V10.8656H0V7.39688ZM0 14.3156H85.5V17.7844H0V14.3156ZM0 21.2344H85.5V24.7031H0V21.2344ZM0 28.1719H85.5V31.6219H0V28.1719ZM0 35.0813H85.5V38.55H0V35.0813ZM0 42H85.5V45.4688H0V42Z" fill="#BD3D44"/>
<path fill-rule="evenodd" clip-rule="evenodd" d="M0 3.9375H85.5V7.39688H0V3.9375ZM0 10.8563H85.5V14.3156H0V10.8563ZM0 17.775H85.5V21.2438H0V17.775ZM0 24.7031H85.5V28.1719H0V24.7031ZM0 31.6219H85.5V35.0906H0V31.6219ZM0 38.5406H85.5V42.0094H0V38.5406Z" fill="white"/>
<path fill-rule="evenodd" clip-rule="evenodd" d="M0 0.46875H34.2V24.7031H0V0.46875Z" fill="#192F5D"/>
<path fill-rule="evenodd" clip-rule="evenodd" d="M2.8502 1.5L3.16895 2.46562H4.1627L3.35645 3.05625L3.66582 4.02188L2.8502 3.42188L2.04395 4.0125L2.34395 3.05625L1.52832 2.46562H2.5502L2.8502 1.5ZM8.55019 1.5L8.85957 2.46562H9.87207L9.05645 3.05625L9.35645 4.02188L8.55019 3.42188L7.73457 4.0125L8.04395 3.05625L7.2377 2.46562H8.23145L8.55019 1.5ZM14.2502 1.5L14.5596 2.46562H15.5627L14.7564 3.05625L15.0658 4.02188L14.2502 3.42188L13.4346 4.0125L13.7439 3.05625L12.9283 2.46562H13.9408L14.2502 1.5ZM19.9502 1.5L20.2596 2.46562H21.2721L20.4564 3.05625L20.7658 4.02188L19.9502 3.42188L19.1346 4.0125L19.4533 3.05625L18.6283 2.46562H19.6314L19.9502 1.5ZM25.6502 1.5L25.9596 2.46562H26.9627L26.1564 3.05625L26.4658 4.02188L25.6502 3.42188L24.8346 4.0125L25.1439 3.05625L24.3377 2.46562H25.3408L25.6502 1.5ZM31.3502 1.5L31.6596 2.46562H32.6721L31.8471 3.05625L32.1658 4.02188L31.3502 3.42188L30.5346 4.0125L30.8533 3.05625L30.0283 2.46562H31.0408L31.3502 1.5ZM5.7002 3.9375L6.00957 4.89375H7.03145L6.21582 5.475L6.51582 6.44063L5.71895 5.85L4.90332 6.44063L5.19395 5.475L4.40645 4.89375H5.40957L5.7002 3.9375ZM11.4002 3.9375L11.7189 4.89375H12.7221L11.8971 5.475L12.2158 6.44063L11.4002 5.85L10.5846 6.44063L10.8939 5.475L10.0783 4.89375H11.0908L11.4002 3.9375ZM17.1002 3.9375L17.4096 4.89375H18.4221L17.6064 5.475L17.9158 6.44063L17.1002 5.85L16.2846 6.44063L16.5939 5.475L15.7877 4.89375H16.7814L17.1002 3.9375ZM22.8002 3.9375L23.1189 4.89375H24.1221L23.2971 5.475L23.6158 6.44063L22.8002 5.85L21.9939 6.44063L22.2939 5.475L21.4783 4.89375H22.5002L22.8002 3.9375ZM28.5002 3.9375L28.8096 4.89375H29.8221L29.0064 5.475L29.3158 6.44063L28.5002 5.85L27.6846 6.44063L27.9939 5.475L27.1877 4.89375H28.1908L28.5002 3.9375ZM2.8502 6.3375L3.16895 7.3125H4.1627L3.35645 7.90313L3.66582 8.85938L2.8502 8.26875L2.04395 8.85938L2.34395 7.90313L1.52832 7.3125H2.5502L2.8502 6.3375ZM8.55019 6.3375L8.85957 7.3125H9.87207L9.05645 7.90313L9.35645 8.85938L8.55019 8.26875L7.73457 8.85938L8.04395 7.89375L7.2377 7.30313H8.23145L8.55019 6.3375ZM14.2502 6.3375L14.5596 7.30313H15.5627L14.7564 7.89375L15.0658 8.85L14.2502 8.25938L13.4346 8.85L13.7439 7.88438L12.9283 7.29375H13.9408L14.2502 6.3375ZM19.9502 6.3375L20.2596 7.30313H21.2721L20.4564 7.89375L20.7658 8.85L19.9502 8.25938L19.1346 8.85L19.4533 7.88438L18.6283 7.29375H19.6314L19.9502 6.3375ZM25.6502 6.3375L25.9596 7.30313H26.9627L26.1564 7.89375L26.4658 8.85L25.6502 8.25938L24.8346 8.85L25.1439 7.88438L24.3377 7.29375H25.3408L25.6502 6.3375ZM31.3502 6.3375L31.6596 7.30313H32.6721L31.8471 7.89375L32.1658 8.85L31.3502 8.25938L30.5346 8.85L30.8533 7.88438L30.0283 7.29375H31.0408L31.3502 6.3375ZM5.7002 8.775L6.00957 9.73125H7.03145L6.21582 10.3219L6.5252 11.2875L5.70957 10.6875L4.89395 11.2781L5.20332 10.3219L4.39707 9.73125H5.4002L5.7002 8.775ZM11.4002 8.775L11.7189 9.73125H12.7221L11.8971 10.3219L12.2158 11.2875L11.4002 10.6875L10.5846 11.2781L10.8939 10.3219L10.0783 9.73125H11.0908L11.4002 8.775ZM17.1002 8.775L17.4096 9.73125H18.4221L17.6064 10.3219L17.9158 11.2875L17.1002 10.6875L16.2846 11.2781L16.5939 10.3219L15.7877 9.73125H16.7814L17.1002 8.775ZM22.8002 8.775L23.1189 9.73125H24.1221L23.3064 10.3219L23.6158 11.2875L22.8002 10.6875L21.9939 11.2781L22.2939 10.3219L21.4783 9.73125H22.5002L22.8002 8.775ZM28.5002 8.775L28.8096 9.73125H29.8221L29.0064 10.3219L29.3158 11.2875L28.5002 10.6875L27.6846 11.2781L27.9939 10.3219L27.1877 9.73125H28.1908L28.5002 8.775ZM2.8502 11.2031L3.16895 12.1594H4.1627L3.35645 12.75L3.66582 13.7156L2.8502 13.1156L2.04395 13.7063L2.34395 12.75L1.52832 12.1594H2.5502L2.8502 11.2031ZM8.55019 11.2031L8.85957 12.1594H9.87207L9.05645 12.75L9.35645 13.7063L8.55019 13.1156L7.73457 13.7063L8.04395 12.75L7.2377 12.1594H8.23145L8.55019 11.2031ZM14.2502 11.2031L14.5596 12.1594H15.5627L14.7564 12.75L15.0658 13.7156L14.2502 13.1156L13.4346 13.7063L13.7439 12.75L12.9283 12.1594H13.9408L14.2502 11.2031ZM19.9502 11.2031L20.2596 12.1594H21.2721L20.4564 12.75L20.7658 13.7156L19.9502 13.1156L19.1346 13.7063L19.4533 12.75L18.6283 12.1594H19.6314L19.9502 11.2031ZM25.6502 11.2031L25.9596 12.1594H26.9627L26.1564 12.75L26.4658 13.7156L25.6502 13.1156L24.8346 13.7063L25.1439 12.75L24.3377 12.1594H25.3408L25.6502 11.2031ZM31.3502 11.2031L31.6596 12.1594H32.6721L31.8471 12.75L32.1658 13.7156L31.3502 13.1156L30.5346 13.7063L30.8439 12.75L30.0189 12.1594H31.0314L31.3502 11.2031ZM5.7002 13.6219L6.00957 14.5875H7.03145L6.21582 15.1688L6.5252 16.1344L5.70957 15.5344L4.89395 16.1344L5.20332 15.1688L4.39707 14.5781H5.4002L5.7002 13.6219ZM11.4002 13.6219L11.7189 14.5875H12.7221L11.8971 15.1688L12.2158 16.1344L11.4002 15.5344L10.5846 16.1344L10.8939 15.1688L10.0783 14.5781H11.0908L11.4002 13.6219ZM17.1002 13.6219L17.4096 14.5875H18.4221L17.6064 15.1688L17.9158 16.1344L17.1002 15.5344L16.2846 16.1344L16.5939 15.1688L15.7877 14.5781H16.7814L17.1002 13.6219ZM22.8002 13.6219L23.1189 14.5875H24.1221L23.3064 15.1688L23.6158 16.1344L22.8002 15.5344L21.9939 16.1344L22.2939 15.1688L21.4783 14.5781H22.5002L22.8002 13.6219ZM28.5002 13.6219L28.8096 14.5875H29.8221L29.0064 15.1688L29.3158 16.1344L28.5002 15.5344L27.6846 16.1344L27.9939 15.1688L27.1877 14.5781H28.1908L28.5002 13.6219ZM2.8502 16.0406L3.16895 17.0063H4.1627L3.35645 17.5969L3.66582 18.5438L2.8502 17.9625L2.04395 18.5438L2.34395 17.5875L1.52832 16.9969H2.5502L2.8502 16.0406ZM8.55019 16.0406L8.85957 17.0063H9.87207L9.05645 17.5969L9.36582 18.5438L8.55019 17.9625L7.73457 18.5438L8.05332 17.5875L7.2377 16.9969H8.23145L8.55019 16.0406ZM14.2502 16.0406L14.5596 17.0063H15.5627L14.7564 17.5969L15.0658 18.5438L14.2502 17.9625L13.4346 18.5438L13.7439 17.5875L12.9283 16.9969H13.9408L14.2502 16.0406ZM19.9502 16.0406L20.2596 17.0063H21.2721L20.4564 17.5969L20.7658 18.5438L19.9502 17.9625L19.1346 18.5438L19.4533 17.5875L18.6283 16.9969H19.6314L19.9502 16.0406ZM25.6502 16.0406L25.9596 17.0063H26.9627L26.1564 17.5969L26.4658 18.5438L25.6502 17.9625L24.8346 18.5438L25.1439 17.5875L24.3377 16.9969H25.3408L25.6502 16.0406ZM31.3502 16.0406L31.6596 17.0063H32.6721L31.8471 17.5969L32.1658 18.5438L31.3502 17.9625L30.5346 18.5438L30.8533 17.5875L30.0283 16.9969H31.0408L31.3502 16.0406ZM5.7002 18.4688L6.00957 19.425H7.03145L6.21582 20.0156L6.5252 20.9813L5.70957 20.3813L4.89395 20.9719L5.20332 20.0156L4.39707 19.425H5.4002L5.7002 18.4688ZM11.4002 18.4688L11.7189 19.425H12.7221L11.8971 20.0156L12.2158 20.9813L11.4002 20.3813L10.5846 20.9719L10.8939 20.0156L10.0783 19.425H11.0908L11.4002 18.4688ZM17.1002 18.4688L17.4096 19.425H18.4221L17.6064 20.0156L17.9158 20.9813L17.1002 20.3813L16.2846 20.9719L16.5939 20.0156L15.7877 19.425H16.7814L17.1002 18.4688ZM22.8002 18.4688L23.1189 19.425H24.1221L23.3064 20.0156L23.6158 20.9813L22.8002 20.3813L21.9939 20.9719L22.2939 20.0156L21.4783 19.425H22.5002L22.8002 18.4688ZM28.5002 18.4688L28.8096 19.425H29.8221L29.0064 20.0156L29.3158 20.9813L28.5002 20.3813L27.6846 20.9719L27.9939 20.0156L27.1877 19.425H28.1908L28.5002 18.4688ZM2.8502 20.8969L3.16895 21.8531H4.1627L3.35645 22.4438L3.66582 23.4L2.8502 22.8094L2.04395 23.4L2.34395 22.4344L1.52832 21.8438H2.5502L2.8502 20.8969ZM8.55019 20.8969L8.85957 21.8531H9.87207L9.05645 22.4438L9.36582 23.4L8.55019 22.8094L7.73457 23.4L8.05332 22.4344L7.2377 21.8438H8.23145L8.55019 20.8969ZM14.2502 20.8969L14.5596 21.8531H15.5627L14.7752 22.4438L15.0846 23.4L14.2689 22.8094L13.4533 23.4L13.7627 22.4344L12.9471 21.8438H13.9596L14.2502 20.8969ZM19.9502 20.8969L20.2596 21.8531H21.2721L20.4564 22.4438L20.7658 23.4L19.9502 22.8094L19.1346 23.4L19.4533 22.4344L18.6283 21.8438H19.6314L19.9502 20.8969ZM25.6502 20.8969L25.9596 21.8531H26.9627L26.1564 22.4438L26.4658 23.4L25.6502 22.8094L24.8346 23.4L25.1439 22.4344L24.3377 21.8438H25.3408L25.6502 20.8969ZM31.3502 20.8969L31.6596 21.8531H32.6721L31.8471 22.4438L32.1658 23.4L31.3502 22.8094L30.5346 23.4L30.8533 22.4344L30.0283 21.8438H31.0408L31.3502 20.8969Z" fill="white"/>
</g>
</g>
<defs>
<clipPath id="clip0_238_1553">
<rect y="0.46875" width="60" height="45" rx="6" fill="white"/>
</clipPath>
<clipPath id="clip1_238_1553">
<rect width="60" height="45" fill="white" transform="translate(0 0.46875)"/>
</clipPath>
</defs>
</svg>
