<svg width="100" height="100" viewBox="0 0 100 100" fill="none" xmlns="http://www.w3.org/2000/svg">
<path d="M33.3334 100C42.5334 100 50.0001 92.5334 50.0001 83.3334V66.6667H33.3334C24.1334 66.6667 16.6667 74.1334 16.6667 83.3334C16.6667 92.5334 24.1334 100 33.3334 100Z" fill="url(#paint0_linear_233_724)"/>
<path d="M16.6667 49.9999C16.6667 40.7999 24.1334 33.3333 33.3334 33.3333H50.0001V66.6665H33.3334C24.1334 66.6665 16.6667 59.1999 16.6667 49.9999Z" fill="url(#paint1_linear_233_724)"/>
<path d="M16.6667 16.6667C16.6667 7.46666 24.1334 0 33.3334 0H50.0001V33.3333H33.3334C24.1334 33.3333 16.6667 25.8667 16.6667 16.6667Z" fill="url(#paint2_linear_233_724)"/>
<path d="M50 0H66.6667C75.8667 0 83.3334 7.46666 83.3334 16.6667C83.3334 25.8667 75.8667 33.3333 66.6667 33.3333H50V0Z" fill="url(#paint3_linear_233_724)"/>
<path d="M83.3334 49.9999C83.3334 59.1999 75.8667 66.6665 66.6667 66.6665C57.4667 66.6665 50 59.1999 50 49.9999C50 40.7999 57.4667 33.3333 66.6667 33.3333C75.8667 33.3333 83.3334 40.7999 83.3334 49.9999Z" fill="url(#paint4_linear_233_724)"/>
<defs>
<linearGradient id="paint0_linear_233_724" x1="48.1084" y1="90.1231" x2="19.2619" y2="90.0449" gradientUnits="userSpaceOnUse">
<stop stop-color="#333399"/>
<stop offset="1" stop-color="#FF00CC" stop-opacity="0.7"/>
</linearGradient>
<linearGradient id="paint1_linear_233_724" x1="48.1084" y1="56.7896" x2="19.2619" y2="56.7114" gradientUnits="userSpaceOnUse">
<stop stop-color="#333399"/>
<stop offset="1" stop-color="#FF00CC" stop-opacity="0.7"/>
</linearGradient>
<linearGradient id="paint2_linear_233_724" x1="48.1084" y1="23.4564" x2="19.2619" y2="23.3782" gradientUnits="userSpaceOnUse">
<stop stop-color="#333399"/>
<stop offset="1" stop-color="#FF00CC" stop-opacity="0.7"/>
</linearGradient>
<linearGradient id="paint3_linear_233_724" x1="81.4417" y1="23.4564" x2="52.5951" y2="23.3782" gradientUnits="userSpaceOnUse">
<stop stop-color="#333399"/>
<stop offset="1" stop-color="#FF00CC" stop-opacity="0.7"/>
</linearGradient>
<linearGradient id="paint4_linear_233_724" x1="81.4417" y1="56.7896" x2="52.5951" y2="56.7114" gradientUnits="userSpaceOnUse">
<stop stop-color="#333399"/>
<stop offset="1" stop-color="#FF00CC" stop-opacity="0.7"/>
</linearGradient>
</defs>
</svg>
