<svg width="100" height="90" viewBox="0 0 100 90" fill="none" xmlns="http://www.w3.org/2000/svg">
<path fill-rule="evenodd" clip-rule="evenodd" d="M61.7111 55.659L59.7929 58.9898C59.2151 59.9932 58.1454 60.6116 56.9875 60.6116H42.2933C41.1354 60.6116 40.0657 59.9932 39.4878 58.9898L37.5695 55.659H61.7111ZM67.081 46.3348L63.6988 52.2074H35.5817L32.1997 46.3348H67.081ZM63.8231 37.2168L67.0864 42.8833H32.1943L35.4576 37.2168H63.8231ZM56.9875 28.5972C58.1454 28.5972 59.2151 29.2155 59.7929 30.2189L61.8353 33.7652H37.4454L39.4878 30.2189C40.0657 29.2155 41.1354 28.5972 42.2933 28.5972H56.9875Z" fill="#00435B"/>
<path d="M20.9074 27.0515C19.2796 19.1586 18.9303 13.1048 19.9824 8.70886C20.6082 6.09442 21.7523 3.9616 23.4919 2.4228C25.3285 0.798237 27.6505 0.00106017 30.2596 0.00106017C34.5638 0.00106017 39.0886 1.96382 43.9241 5.69256C45.8964 7.21344 47.9434 9.04662 50.0693 11.1931C50.2385 10.9753 50.4298 10.7698 50.6429 10.5799C56.6531 5.22393 61.7133 1.89618 66.0413 0.613096C68.6147 -0.149824 71.0308 -0.222508 73.231 0.517932C75.5535 1.29951 77.404 2.91516 78.7096 5.17816C80.8644 8.91293 81.4326 13.8204 80.6293 19.88C80.3018 22.3499 79.742 25.0403 78.9511 27.9555C79.2495 27.9915 79.5486 28.0577 79.8448 28.1558C87.4705 30.6829 92.8703 33.4004 96.1395 36.5061C98.0846 38.3539 99.3547 40.411 99.8139 42.6882C100.299 45.0917 99.826 47.5025 98.5219 49.7638C96.3712 53.4932 92.4167 56.4345 86.7829 58.7642C84.5208 59.6997 81.9614 60.5469 79.1017 61.3089C79.2322 61.6035 79.3334 61.9164 79.4011 62.2446C81.0289 70.1375 81.3782 76.1914 80.326 80.5873C79.7003 83.2017 78.5562 85.3345 76.8166 86.8733C74.98 88.4979 72.6579 89.2951 70.0489 89.2951C65.7447 89.2951 61.2199 87.3323 56.3844 83.6036C54.3911 82.0665 52.3215 80.2105 50.1713 78.0344C49.95 78.3804 49.6784 78.7021 49.3571 78.9884C43.3469 84.3444 38.2867 87.6722 33.9587 88.9552C31.3853 89.7182 28.9692 89.7908 26.769 89.0504C24.4465 88.2688 22.596 86.6532 21.2904 84.3902C19.1356 80.6554 18.5674 75.7479 19.3707 69.6884C19.71 67.1292 20.2987 64.3332 21.1356 61.2958C20.8085 61.2627 20.48 61.1935 20.1552 61.0859C12.5295 58.5588 7.12969 55.8413 3.86052 52.7356C1.91544 50.8878 0.645278 48.8307 0.186124 46.5535C-0.298514 44.15 0.174045 41.7392 1.47813 39.4779C3.62884 35.7485 7.58335 32.8072 13.2171 30.4775C15.5466 29.5141 18.1914 28.6444 21.1547 27.865C21.0491 27.6065 20.9658 27.3347 20.9074 27.0515Z" fill="#002B3B"/>
<path fill-rule="evenodd" clip-rule="evenodd" d="M40.4916 24.5371C44.4445 24.2225 48.5189 24.0835 52.7147 24.1203C53.5093 24.1272 54.1591 23.4887 54.1661 22.6941C54.169 22.3594 54.0552 22.0342 53.8442 21.7744C44.2942 10.0159 36.4306 4.13672 30.2533 4.13672C23.8759 4.13672 22.0565 11.1666 24.7952 25.2263C24.9453 25.997 25.6855 26.505 26.4586 26.368C31.3343 25.5039 36.012 24.8936 40.4916 24.5371Z" fill="url(#paint0_linear_233_895)"/>
<path fill-rule="evenodd" clip-rule="evenodd" d="M62.6817 26.4724C64.9646 29.7619 67.1556 33.2455 69.2547 36.9232C69.6486 37.6133 70.5274 37.8535 71.2176 37.4596C71.507 37.2944 71.73 37.0339 71.8488 36.7225C77.2508 22.5532 78.3861 12.7814 75.2547 7.4072C72.0233 1.86141 64.9824 3.779 54.1321 13.16C53.5355 13.6757 53.4653 14.5756 53.9747 15.1777C57.1985 18.9885 60.1008 22.7534 62.6817 26.4724Z" fill="url(#paint1_linear_233_895)"/>
<path fill-rule="evenodd" clip-rule="evenodd" d="M72.2631 46.2675C70.5546 49.8584 68.6342 53.4673 66.5019 57.0943C66.0992 57.7794 66.3281 58.6612 67.0131 59.0639C67.3031 59.2344 67.6438 59.2979 67.9757 59.2433C82.8629 56.7956 91.8526 52.8888 94.9449 47.523C98.1386 41.9812 93.0027 36.9018 79.5372 32.2849C78.7954 32.0306 77.9866 32.4171 77.7184 33.154C76.0193 37.8239 74.2008 42.1951 72.2631 46.2675Z" fill="url(#paint2_linear_233_895)"/>
<path fill-rule="evenodd" clip-rule="evenodd" d="M60.048 64.8515C56.0951 65.1661 52.0207 65.305 47.8249 65.2683C47.0303 65.2613 46.3804 65.8998 46.3735 66.6945C46.3706 67.0291 46.4844 67.3544 46.6954 67.6142C56.2453 79.3726 64.1089 85.2518 70.2862 85.2518C76.6637 85.2518 78.4831 78.222 75.7444 64.1622C75.5943 63.3916 74.8541 62.8836 74.081 63.0206C69.2052 63.8847 64.5276 64.495 60.048 64.8515Z" fill="url(#paint3_linear_233_895)"/>
<path fill-rule="evenodd" clip-rule="evenodd" d="M37.3181 63.0959C35.0352 59.8064 32.8443 56.3228 30.7452 52.6452C30.3512 51.955 29.4724 51.7149 28.7823 52.1088C28.4929 52.274 28.2698 52.5345 28.1511 52.8458C22.749 67.0152 21.6137 76.787 24.7451 82.1612C27.9765 87.707 35.0174 85.7894 45.8677 76.4084C46.4643 75.8926 46.5345 74.9927 46.0252 74.3907C42.8014 70.5799 39.899 66.8149 37.3181 63.0959Z" fill="url(#paint4_linear_233_895)"/>
<path fill-rule="evenodd" clip-rule="evenodd" d="M27.7369 42.7612C29.4455 39.1704 31.3659 35.5614 33.4981 31.9344C33.9008 31.2494 33.672 30.3675 32.9869 29.9648C32.6969 29.7943 32.3563 29.7308 32.0243 29.7854C17.1371 32.2332 8.14742 36.1399 5.05511 41.5058C1.8614 47.0475 6.9973 52.1269 20.4628 56.7438C21.2046 56.9981 22.0135 56.6116 22.2816 55.8747C23.9808 51.2048 25.7992 46.8336 27.7369 42.7612Z" fill="url(#paint5_linear_233_895)"/>
<path fill-rule="evenodd" clip-rule="evenodd" d="M43.4745 28.777H55.8088C57.6126 28.777 59.2787 29.7418 60.1766 31.3063L66.3698 42.0976C67.2607 43.65 67.2607 45.5586 66.3698 47.111L60.1766 57.9024C59.2787 59.4669 57.6126 60.4317 55.8088 60.4317H43.4745C41.6706 60.4317 40.0045 59.4669 39.1067 57.9024L32.9135 47.111C32.0225 45.5586 32.0225 43.65 32.9135 42.0976L39.1067 31.3063C40.0045 29.7418 41.6706 28.777 43.4745 28.777ZM53.9289 32.0341C55.7337 32.0341 57.4005 32.9998 58.298 34.5656L62.6167 42.0999C63.5059 43.6511 63.5059 45.5575 62.6167 47.1087L58.298 54.643C57.4005 56.2088 55.7337 57.1746 53.9289 57.1746H45.3543C43.5495 57.1746 41.8827 56.2088 40.9852 54.643L36.6666 47.1087C35.7774 45.5575 35.7774 43.6511 36.6666 42.0999L40.9852 34.5656C41.8827 32.9998 43.5495 32.0341 45.3543 32.0341H53.9289ZM51.9027 35.5965H47.3805C45.5776 35.5965 43.9122 36.5603 43.014 38.1236L40.7319 42.0954C39.8393 43.6489 39.8393 45.5597 40.7319 47.1132L43.014 51.0851C43.9122 52.6483 45.5776 53.6122 47.3805 53.6122H51.9027C53.7057 53.6122 55.3711 52.6483 56.2693 51.0851L58.5514 47.1132C59.444 45.5597 59.444 43.6489 58.5514 42.0954L56.2693 38.1236C55.3711 36.5603 53.7057 35.5965 51.9027 35.5965ZM49.9517 39.0062C51.7533 39.0062 53.4176 39.9686 54.3164 41.53L54.6399 42.0922C55.535 43.6473 55.535 45.5613 54.6399 47.1165L54.3164 47.6786C53.4176 49.24 51.7533 50.2024 49.9517 50.2024H49.3316C47.53 50.2024 45.8656 49.24 44.9669 47.6786L44.6434 47.1165C43.7483 45.5613 43.7483 43.6473 44.6434 42.0922L44.9669 41.53C45.8656 39.9686 47.53 39.0062 49.3316 39.0062H49.9517ZM49.6424 42.3651C48.8406 42.3651 48.1011 42.7918 47.7008 43.4847C47.3005 44.1774 47.3005 45.0312 47.7008 45.7239C48.1011 46.4168 48.8406 46.8436 49.6408 46.8436C50.4427 46.8436 51.1821 46.4168 51.5825 45.7239C51.9828 45.0312 51.9828 44.1774 51.5825 43.4847C51.1821 42.7918 50.4427 42.3651 49.6424 42.3651ZM31.4749 44.6043H35.5064H31.4749Z" fill="white"/>
<defs>
<linearGradient id="paint0_linear_233_895" x1="52.4293" y1="19.7964" x2="25.9439" y2="19.6976" gradientUnits="userSpaceOnUse">
<stop stop-color="#333399"/>
<stop offset="1" stop-color="#FF00CC" stop-opacity="0.7"/>
</linearGradient>
<linearGradient id="paint1_linear_233_895" x1="75.6536" y1="27.7724" x2="55.4516" y2="27.734" gradientUnits="userSpaceOnUse">
<stop stop-color="#333399"/>
<stop offset="1" stop-color="#FF00CC" stop-opacity="0.7"/>
</linearGradient>
<linearGradient id="paint2_linear_233_895" x1="94.1858" y1="51.2456" x2="68.6046" y2="51.1698" gradientUnits="userSpaceOnUse">
<stop stop-color="#333399"/>
<stop offset="1" stop-color="#FF00CC" stop-opacity="0.7"/>
</linearGradient>
<linearGradient id="paint3_linear_233_895" x1="48.1103" y1="69.5922" x2="74.5956" y2="69.6909" gradientUnits="userSpaceOnUse">
<stop stop-color="#333399"/>
<stop offset="1" stop-color="#FF00CC" stop-opacity="0.7"/>
</linearGradient>
<linearGradient id="paint4_linear_233_895" x1="45.0408" y1="75.3751" x2="24.8388" y2="75.3368" gradientUnits="userSpaceOnUse">
<stop stop-color="#333399"/>
<stop offset="1" stop-color="#FF00CC" stop-opacity="0.7"/>
</linearGradient>
<linearGradient id="paint5_linear_233_895" x1="32.0193" y1="48.8052" x2="6.4381" y2="48.7294" gradientUnits="userSpaceOnUse">
<stop stop-color="#333399"/>
<stop offset="1" stop-color="#FF00CC" stop-opacity="0.7"/>
</linearGradient>
</defs>
</svg>
