<svg width="60" height="46" viewBox="0 0 60 46" fill="none" xmlns="http://www.w3.org/2000/svg">
<g clip-path="url(#clip0_238_1554)">
<g clip-path="url(#clip1_238_1554)">
<path fill-rule="evenodd" clip-rule="evenodd" d="M0 0.53125H60V45.5312H0V0.53125Z" fill="#229E45"/>
<path fill-rule="evenodd" clip-rule="evenodd" d="M30.1312 41.4062L58.3968 23.0594L29.9624 4.65625L1.60303 23.0969L30.1312 41.4062Z" fill="#F8E509"/>
<path fill-rule="evenodd" clip-rule="evenodd" d="M42.45 23.0313C42.45 29.6219 37.0969 34.9656 30.4875 34.9656C28.1257 34.9619 25.8179 34.258 23.8561 32.943C21.8942 31.6279 20.3662 29.7607 19.4654 27.5774C18.5646 25.3941 18.3313 22.9927 18.795 20.6768C19.2587 18.361 20.3986 16.2346 22.0707 14.5665C23.7427 12.8983 25.8718 11.7634 28.1888 11.3051C30.5057 10.8469 32.9066 11.0858 35.0877 11.9918C37.2689 12.8978 39.1325 14.4301 40.443 16.3951C41.7534 18.36 42.4519 20.6694 42.45 23.0313Z" fill="#2B49A3"/>
<path fill-rule="evenodd" clip-rule="evenodd" d="M26.5595 30.1844L26.1845 29.9688L25.8095 30.1563L25.8938 29.7344L25.5938 29.4156L26.0157 29.3688L26.222 28.9938L26.4001 29.3875L26.8126 29.4625L26.5032 29.7438M34.5657 32.2094L34.2001 31.9938L33.8251 32.1813L33.9001 31.7594L33.6095 31.45L34.0313 31.4031L34.2282 31.0188L34.4157 31.4125L34.8282 31.4875L34.5095 31.7781M31.1157 28.9656L30.797 28.7781L30.4688 28.9469L30.5438 28.5813L30.2813 28.3094L30.6563 28.2719L30.8251 27.9344L30.9751 28.2813L31.3407 28.3469L31.0595 28.6M39.2157 27.8031L38.897 27.6156L38.5688 27.7844L38.6438 27.4188L38.3907 27.1563L38.7563 27.1188L38.9251 26.7906L39.0751 27.1281L39.4313 27.1938L39.1595 27.4375M30.9751 25.375L30.6001 25.1688L30.2251 25.3563L30.3001 24.925L30.0095 24.6156L30.4313 24.5688L30.6282 24.1844L30.8157 24.5781L31.2282 24.6531L30.9095 24.9531M21.1032 21.6719L20.7282 21.4656L20.3532 21.6531L20.447 21.2219L20.1376 20.9125L20.5688 20.8656L20.7563 20.4813L20.9438 20.875L21.3563 20.95L21.047 21.2406M22.2938 26.6031L21.9188 26.3875L21.5438 26.575L21.6282 26.1531L21.3282 25.8438L21.7501 25.7875L21.947 25.4125L22.1345 25.8063L22.547 25.8813L22.2376 26.1719M34.6126 19.8625L34.2751 19.675L33.9376 19.8438L34.0126 19.4688L33.7501 19.1875L34.1251 19.1406L34.3032 18.8031L34.4626 19.1594L34.8376 19.225L34.5563 19.4781M33.9282 23.0688L33.6751 22.9188L33.4032 23.05L33.4595 22.75L33.2532 22.5344L33.5532 22.4969L33.6938 22.2344L33.8157 22.5156L34.097 22.5625L33.8907 22.7688M20.5595 27.4938L20.3063 27.3531L20.0532 27.475L20.1095 27.1938L19.9126 26.9875L20.1938 26.95L20.3251 26.6969L20.447 26.9594L20.7282 27.0156L20.5126 27.2031M39.2813 28.6375L39.0751 28.5344L38.8688 28.6281L38.9157 28.4125L38.7563 28.2625L38.9813 28.2344L39.0938 28.0469L39.1876 28.2344L39.422 28.2813L39.2438 28.4219" fill="#FFFFEF"/>
<path fill-rule="evenodd" clip-rule="evenodd" d="M20.5595 27.4938L20.3063 27.3531L20.0532 27.475L20.1095 27.1938L19.9126 26.9875L20.1938 26.95L20.3251 26.6969L20.447 26.9594L20.7282 27.0156L20.5126 27.2031" fill="#FFFFEF"/>
<path fill-rule="evenodd" clip-rule="evenodd" d="M20.5595 27.4938L20.3063 27.3531L20.0532 27.475L20.1095 27.1938L19.9126 26.9875L20.1938 26.95L20.3251 26.6969L20.447 26.9594L20.7282 27.0156L20.5126 27.2031M24.4782 27.4844L24.2345 27.3531L23.9813 27.475L24.0376 27.1938L23.8407 26.9875L24.122 26.95L24.2532 26.6969L24.3751 26.9594L24.6563 27.0063L24.4407 27.2031M23.9907 28.7969L23.747 28.6563L23.4938 28.7875L23.5501 28.5063L23.3532 28.2906L23.6345 28.2531L23.7657 28L23.8876 28.2625L24.1688 28.3188L23.9532 28.5063M32.147 26.425L31.9032 26.275L31.6407 26.4063L31.697 26.125L31.5095 25.9094L31.7907 25.8813L31.922 25.6281L32.0345 25.8906L32.3157 25.9375L32.1095 26.1344M29.7563 26.4156L29.5032 26.275L29.2501 26.4063L29.3063 26.125L29.1188 25.9094L29.4001 25.8813L29.5313 25.6188L29.6438 25.8906L29.9251 25.9375L29.7188 26.1344M23.2688 25.5906L23.1095 25.4969L22.9501 25.5719L22.9876 25.3938L22.8657 25.2625L23.0438 25.2438L23.1188 25.0844L23.1938 25.2531L23.372 25.2813L23.2407 25.4031M38.972 29.6594L38.7282 29.5188L38.4751 29.65L38.5313 29.3688L38.3345 29.1531L38.6157 29.1156L38.747 28.8625L38.8688 29.125L39.1501 29.1813L38.9345 29.3688M36.9845 29.9313L36.7782 29.8L36.5626 29.9125L36.6095 29.6688L36.4501 29.5L36.6845 29.4719L36.797 29.2563L36.8907 29.4813L37.1251 29.5188L36.947 29.6875M37.922 29.9031L37.7345 29.7906L37.5376 29.8844L37.5751 29.6688L37.4251 29.5094L37.6407 29.4813L37.7438 29.2938L37.8376 29.4813L38.0532 29.5281L37.8938 29.6781M40.622 27.5406L40.4345 27.4469L40.247 27.5406L40.2938 27.325L40.1438 27.1656L40.3595 27.1375L40.4532 26.95L40.547 27.1469L40.7438 27.1844L40.5938 27.3344M36.9563 31.2531L36.722 31.1219L36.4688 31.2344L36.5251 30.9719L36.3376 30.7844L36.6188 30.7563L36.7407 30.5219L36.8532 30.7656L37.1345 30.8125L36.9188 30.9906M36.9751 32.3219L36.7501 32.1906L36.5251 32.3125L36.5813 32.05L36.4032 31.8625L36.6563 31.825L36.7688 31.5906L36.872 31.8344L37.1251 31.8813L36.9376 32.0688M35.1563 29.9031L34.9782 29.7906L34.7907 29.8844L34.8282 29.6781L34.6876 29.5188L34.8938 29.5L34.9876 29.3125L35.0813 29.5L35.2876 29.5375L35.1376 29.6875M33.4688 29.9031L33.2813 29.7906L33.0938 29.8844L33.1407 29.6781L32.9907 29.5188L33.2063 29.5L33.3001 29.3125L33.3938 29.5L33.5907 29.5375L33.4407 29.6875M30.5907 27.3813L30.4032 27.2781L30.2157 27.3719L30.2626 27.1563L30.1126 27.0063L30.3188 26.9781L30.4126 26.7906L30.5063 26.9781L30.7126 27.025L30.5626 27.1656M30.9095 32.5094L30.7595 32.425L30.5907 32.5094L30.6282 32.3219L30.5063 32.1906L30.6845 32.1719L30.7688 32.0125L30.8438 32.1813L31.022 32.2094L30.8907 32.3313M26.5595 24.2125L26.1845 23.9969L25.8095 24.1844L25.8938 23.7625L25.5938 23.4531L26.0157 23.3969L26.222 23.0219L26.4001 23.4156L26.8126 23.4906L26.5032 23.7813" fill="#FFFFEF"/>
<path fill-rule="evenodd" clip-rule="evenodd" d="M41.6625 27.325C41.8948 26.7223 42.0766 26.1015 42.2063 25.4688C35.85 19.8906 28.7719 17.0313 19.8281 17.6219C19.5037 18.2495 19.237 18.9054 19.0312 19.5813C29.625 18.5688 37.4062 23.2563 41.6625 27.325Z" fill="white"/>
<path d="M38.8123 24.1937L39.0279 24.3156C38.9957 24.3793 38.9858 24.4519 38.9998 24.5219C39.0218 24.5897 39.0687 24.6467 39.1311 24.6813C39.1967 24.7281 39.2623 24.7562 39.3186 24.7469C39.3748 24.7469 39.4123 24.7188 39.4404 24.6813C39.4568 24.6564 39.4634 24.6263 39.4592 24.5969C39.4515 24.5622 39.4354 24.53 39.4123 24.5031C39.3936 24.475 39.3467 24.4094 39.2717 24.3344C39.1946 24.2548 39.1369 24.1586 39.1029 24.0531C39.0795 23.9733 39.0856 23.8877 39.12 23.812C39.1544 23.7363 39.2149 23.6755 39.2904 23.6406C39.3586 23.6122 39.434 23.6056 39.5061 23.6219C39.5942 23.6422 39.6772 23.6805 39.7498 23.7344C39.8811 23.8281 39.9654 23.9219 39.9936 24.0344C40.0065 24.087 40.0082 24.1418 39.9985 24.1951C39.9888 24.2484 39.968 24.2991 39.9373 24.3438L39.7123 24.2031C39.7404 24.1469 39.7498 24.0906 39.7311 24.0438C39.7217 23.9969 39.6842 23.95 39.6186 23.9125C39.5704 23.8738 39.5115 23.8508 39.4498 23.8469C39.4328 23.8463 39.416 23.8504 39.4011 23.8586C39.3863 23.8669 39.3739 23.879 39.3654 23.8937C39.3467 23.9219 39.3467 23.95 39.3561 23.9875C39.3654 24.025 39.4123 24.1 39.5061 24.1937C39.5998 24.2875 39.6561 24.3719 39.6936 24.4281C39.727 24.4896 39.7422 24.5593 39.7372 24.6291C39.7322 24.6989 39.7073 24.7658 39.6654 24.8219C39.6216 24.8856 39.5595 24.9346 39.4873 24.9625C39.417 24.9949 39.3384 25.0047 39.2623 24.9906C39.1779 24.9719 39.0936 24.9344 38.9998 24.8688C38.8592 24.775 38.7748 24.6719 38.7467 24.5594C38.7161 24.4318 38.7363 24.2974 38.8029 24.1844L38.8123 24.1937ZM37.7248 23.4813L37.9592 23.6031C37.9301 23.6679 37.9235 23.7405 37.9404 23.8094C37.9644 23.8737 38.0111 23.9271 38.0717 23.9594C38.1467 24.0062 38.2029 24.025 38.2592 24.0156C38.3154 24.0156 38.3529 23.9875 38.3811 23.9406C38.3953 23.9183 38.4019 23.892 38.3998 23.8656C38.3998 23.8375 38.3811 23.8 38.3529 23.7719C38.3049 23.7139 38.2549 23.6576 38.2029 23.6031C38.0998 23.5 38.0342 23.4156 38.0154 23.3406C38.0001 23.2924 37.9955 23.2414 38.002 23.1912C38.0085 23.141 38.0258 23.0928 38.0529 23.05C38.0886 22.9921 38.1409 22.9464 38.2029 22.9188C38.2673 22.8891 38.3392 22.8793 38.4092 22.8906C38.4959 22.9052 38.5788 22.9371 38.6529 22.9844C38.7936 23.0781 38.8779 23.1719 38.9061 23.275C38.9231 23.3277 38.9286 23.3835 38.9222 23.4385C38.9157 23.4935 38.8974 23.5465 38.8686 23.5938L38.6342 23.4625C38.6623 23.3969 38.6717 23.35 38.6529 23.3031C38.6342 23.2562 38.5967 23.2094 38.5311 23.1719C38.4792 23.1346 38.4168 23.1149 38.3529 23.1156C38.3375 23.1167 38.3226 23.1215 38.3096 23.1297C38.2965 23.1378 38.2856 23.1491 38.2779 23.1625C38.2592 23.1906 38.2592 23.2187 38.2686 23.2562C38.2779 23.2937 38.3342 23.3688 38.4279 23.4625C38.5217 23.5563 38.5873 23.6312 38.6154 23.6875C38.653 23.7463 38.673 23.8146 38.673 23.8844C38.673 23.9541 38.653 24.0225 38.6154 24.0812C38.575 24.1467 38.5164 24.1988 38.4467 24.2313C38.3764 24.2636 38.2978 24.2734 38.2217 24.2594C38.1252 24.2431 38.0328 24.208 37.9498 24.1562C37.8286 24.0916 37.7352 23.9849 37.6873 23.8563C37.6511 23.7311 37.6645 23.5968 37.7248 23.4813ZM36.3936 23.125L37.0779 22L37.9029 22.5156L37.7904 22.7031L37.1904 22.3281L37.0404 22.5812L37.6029 22.9281L37.4811 23.1156L36.9186 22.7687L36.7311 23.0781L37.3592 23.4531L37.2467 23.6406L36.4029 23.125H36.3936ZM34.4529 21.5312L34.5561 21.3438L35.0623 21.5969L34.8279 22.0656C34.7529 22.0844 34.6592 22.0937 34.5467 22.0844C34.4387 22.0725 34.3338 22.0407 34.2373 21.9906C34.1239 21.9354 34.0269 21.8513 33.9561 21.7469C33.8916 21.6498 33.8588 21.5352 33.8623 21.4188C33.8671 21.2975 33.8991 21.179 33.9561 21.0719C34.0124 20.9591 34.0962 20.8624 34.1998 20.7906C34.2989 20.7221 34.4168 20.6861 34.5373 20.6875C34.6311 20.6875 34.7248 20.7156 34.8373 20.7812C34.9873 20.8469 35.0811 20.9406 35.1279 21.0438C35.1767 21.1461 35.1867 21.2627 35.1561 21.3719L34.9029 21.2969C34.9184 21.2341 34.9118 21.1679 34.8842 21.1094C34.8561 21.0531 34.8092 21.0156 34.7342 20.9781C34.6905 20.9532 34.642 20.9378 34.5919 20.9329C34.5418 20.9281 34.4912 20.9339 34.4436 20.95C34.3498 20.9781 34.2654 21.0625 34.1998 21.1937C34.1342 21.325 34.1061 21.4469 34.1342 21.55C34.1471 21.5989 34.1706 21.6444 34.203 21.6833C34.2354 21.7221 34.2759 21.7534 34.3217 21.775C34.3686 21.8031 34.4248 21.8219 34.4811 21.8219C34.537 21.8304 34.5939 21.8304 34.6498 21.8219L34.7248 21.6719L34.4529 21.5312ZM25.9967 19.4406L26.1842 18.1281L26.5779 18.1937L26.6811 19.1125L27.0467 18.2687L27.4404 18.325L27.2529 19.6188L26.9998 19.5812L27.1592 18.5594L26.7467 19.5438L26.4936 19.5062L26.3904 18.4469L26.2404 19.4781L25.9967 19.4406ZM24.6748 19.2812L24.7967 17.9688L25.7623 18.0625L25.7436 18.2875L25.0404 18.2219L25.0123 18.5031L25.6686 18.5687L25.6404 18.7938L24.9842 18.7281L24.9561 19.0844L25.6873 19.15L25.6686 19.375L24.6748 19.2812Z" fill="#309E3A"/>
<path d="M20.2967 18.4656C20.2967 18.325 20.3248 18.2219 20.3623 18.1281C20.3952 18.0614 20.4396 18.0011 20.4935 17.95C20.5416 17.9015 20.599 17.8632 20.6623 17.8375C20.756 17.8094 20.8498 17.7906 20.9435 17.7906C21.1404 17.7906 21.2904 17.8656 21.4123 17.9781C21.4703 18.0498 21.5134 18.1323 21.5392 18.2208C21.565 18.3094 21.5728 18.4021 21.5623 18.4937C21.5623 18.7 21.4967 18.8687 21.3748 18.9906C21.3122 19.0485 21.2381 19.0926 21.1573 19.1201C21.0766 19.1475 20.991 19.1577 20.906 19.15C20.8222 19.1508 20.7391 19.1347 20.6618 19.1024C20.5844 19.0702 20.5144 19.0226 20.456 18.9625C20.3394 18.8244 20.2821 18.6458 20.2967 18.4656Z" fill="#309E3A"/>
<path d="M20.5684 18.4656C20.5684 18.6062 20.5965 18.7187 20.6621 18.8031C20.7277 18.8781 20.8121 18.925 20.9246 18.925C20.9733 18.9284 21.0221 18.9209 21.0675 18.9031C21.1129 18.8852 21.1538 18.8575 21.1871 18.8219C21.2527 18.7469 21.2809 18.6344 21.2902 18.475C21.2902 18.325 21.2715 18.2125 21.1965 18.1375C21.1659 18.0997 21.1274 18.0692 21.0836 18.0481C21.0399 18.027 20.9919 18.0159 20.9434 18.0156C20.894 18.014 20.845 18.0233 20.7996 18.0427C20.7543 18.0622 20.7137 18.0913 20.6809 18.1281C20.6059 18.2031 20.5777 18.3156 20.5684 18.4656Z" fill="#F7FFFF"/>
<path d="M21.8438 19.1406L21.8625 17.8281H22.425C22.5656 17.8281 22.6594 17.8469 22.725 17.875C22.7906 17.8937 22.8375 17.9406 22.875 17.9969C22.9125 18.0531 22.9313 18.1281 22.9313 18.2125C22.932 18.3027 22.8985 18.3898 22.8375 18.4562C22.7682 18.5212 22.679 18.5608 22.5844 18.5687L22.725 18.6813C22.7625 18.7188 22.8094 18.7937 22.8656 18.8969L23.025 19.1594H22.7062L22.5187 18.8594L22.3875 18.6719C22.3648 18.6461 22.3357 18.6267 22.3031 18.6156C22.2605 18.6032 22.2163 18.5969 22.1719 18.5969H22.1156V19.1406H21.8438Z" fill="#309E3A"/>
<path d="M22.125 18.3906H22.3125C22.4437 18.3906 22.5281 18.3906 22.5563 18.3719C22.5844 18.3719 22.6125 18.3438 22.6312 18.325C22.65 18.3063 22.6594 18.2594 22.6594 18.2313C22.6594 18.175 22.65 18.1375 22.6219 18.1188C22.6031 18.0906 22.5656 18.0719 22.5281 18.0625H22.3406L22.125 18.0531V18.3813V18.3906Z" fill="white"/>
<path d="M23.3439 17.8938L23.8314 17.9219C23.9346 17.9219 24.0189 17.9313 24.0752 17.95C24.1482 17.9765 24.2128 18.0218 24.2627 18.0813C24.3167 18.1468 24.3552 18.2237 24.3752 18.3063C24.4033 18.3906 24.4127 18.4938 24.4033 18.6156C24.4032 18.7113 24.3874 18.8063 24.3564 18.8969C24.3189 18.9906 24.2627 19.0656 24.1971 19.1219C24.1424 19.1669 24.0783 19.1989 24.0096 19.2156C23.9533 19.2344 23.8689 19.2344 23.7752 19.2344L23.2783 19.2063L23.3439 17.8938Z" fill="#309E3A"/>
<path d="M23.5972 18.1281L23.5503 19H23.9065C23.9534 19 23.9909 18.9813 24.019 18.9531C24.0472 18.925 24.0753 18.8875 24.094 18.8313C24.1128 18.775 24.1315 18.6906 24.1315 18.5875L24.1222 18.3531C24.1088 18.3037 24.083 18.2585 24.0472 18.2219C24.016 18.1906 23.9773 18.1679 23.9347 18.1563C23.8638 18.1405 23.7916 18.1311 23.719 18.1281H23.5972Z" fill="white"/>
<path d="M29.7749 20.2375L30.0843 18.9625L30.4968 19.0562L30.7968 19.15C30.8624 19.1875 30.9187 19.2437 30.9468 19.3281C30.9843 19.4031 30.9843 19.4875 30.9655 19.5906C30.9468 19.6656 30.9187 19.7312 30.8718 19.7781C30.8374 19.8193 30.7944 19.8524 30.7458 19.8751C30.6972 19.8977 30.6442 19.9095 30.5905 19.9094C30.5249 19.9094 30.4312 19.8906 30.3093 19.8625L30.1499 19.8156L30.0374 20.3031L29.7749 20.2375Z" fill="#309E3A"/>
<path d="M30.2811 19.2437L30.2061 19.6L30.3467 19.6375C30.4404 19.6562 30.5154 19.675 30.5529 19.6656C30.5894 19.6606 30.6234 19.6443 30.6503 19.6191C30.6771 19.594 30.6955 19.5611 30.7029 19.525C30.7029 19.4781 30.7029 19.4406 30.6842 19.4031C30.6636 19.365 30.6305 19.3352 30.5904 19.3187L30.4123 19.2719L30.2904 19.2437H30.2811Z" fill="white"/>
<path d="M30.9937 20.6031L31.4343 19.3656L31.9499 19.5531C32.0905 19.6 32.1749 19.6469 32.2312 19.6844C32.278 19.7313 32.3155 19.7781 32.3249 19.8531C32.3343 19.9281 32.3437 19.9938 32.3249 20.0688C32.2874 20.1625 32.2312 20.2281 32.1562 20.275C32.0812 20.3125 31.9874 20.3219 31.8749 20.3031C31.9124 20.35 31.9499 20.3969 31.9687 20.4531L32.0437 20.7063L32.0999 20.9969L31.8093 20.8938L31.7155 20.5563C31.6985 20.4799 31.6766 20.4048 31.6499 20.3313C31.6375 20.3021 31.6182 20.2764 31.5937 20.2563C31.5749 20.2281 31.5374 20.2094 31.4718 20.1906L31.4249 20.1719L31.2374 20.6969L30.9937 20.6031Z" fill="#309E3A"/>
<path d="M31.5001 19.975L31.6782 20.0406C31.8001 20.0875 31.8751 20.1063 31.9126 20.1063C31.9407 20.1063 31.9688 20.1063 31.997 20.0781C32.0251 20.0594 32.0438 20.0313 32.0532 19.9938C32.072 19.9563 32.072 19.9188 32.0532 19.8813C32.0394 19.8449 32.0127 19.8149 31.9782 19.7969L31.7907 19.7313L31.6032 19.6656L31.4907 19.975H31.5001Z" fill="white"/>
<path d="M32.5312 20.5563C32.5635 20.4465 32.6177 20.3444 32.6906 20.2563C32.738 20.1997 32.7952 20.1521 32.8594 20.1156C32.9175 20.0828 32.981 20.0606 33.0469 20.05C33.1406 20.05 33.2344 20.05 33.3375 20.0875C33.4213 20.1082 33.4997 20.1465 33.5676 20.1999C33.6355 20.2532 33.6913 20.3204 33.7312 20.3969C33.8062 20.5469 33.8062 20.725 33.75 20.9313C33.7036 21.1084 33.589 21.2601 33.4312 21.3531C33.2906 21.4375 33.1219 21.4469 32.9437 21.3906C32.8602 21.3693 32.782 21.3308 32.7142 21.2776C32.6464 21.2243 32.5904 21.1574 32.55 21.0813C32.5124 20.9993 32.4914 20.9107 32.4882 20.8206C32.485 20.7305 32.4996 20.6407 32.5312 20.5563Z" fill="#309E3A"/>
<path d="M32.7939 20.6313C32.7564 20.7719 32.7471 20.8938 32.7939 20.9875C32.8408 21.0813 32.9064 21.1375 33.0096 21.175C33.1033 21.2031 33.1971 21.1938 33.2908 21.1375C33.3846 21.0906 33.4408 20.9875 33.4877 20.8375C33.5346 20.6969 33.5346 20.5844 33.4877 20.4906C33.4692 20.4461 33.4411 20.4063 33.4055 20.3739C33.3698 20.3415 33.3275 20.3173 33.2814 20.3031C33.2353 20.2872 33.1863 20.2815 33.1377 20.2863C33.0892 20.2912 33.0423 20.3065 33.0002 20.3313C32.9064 20.3875 32.8408 20.4813 32.7939 20.6313Z" fill="white"/>
<path d="M35.0908 22.3844L35.6908 21.2219L36.1877 21.475C36.2814 21.5199 36.3669 21.5801 36.4408 21.6531C36.4877 21.7 36.5158 21.7563 36.5158 21.8313C36.5158 21.9063 36.5158 21.9719 36.4783 22.0375C36.4423 22.1218 36.3751 22.189 36.2908 22.225C36.1971 22.2438 36.1033 22.2438 36.0002 22.2063C36.0377 22.2625 36.0564 22.3188 36.0752 22.3656C36.0939 22.4219 36.1033 22.5063 36.1127 22.6281L36.1314 22.9281L35.8502 22.7875L35.8127 22.4406C35.8083 22.362 35.7989 22.2837 35.7846 22.2063C35.7782 22.1712 35.7619 22.1387 35.7377 22.1125L35.6252 22.0469L35.5783 22.0188L35.3252 22.5063L35.0908 22.3844Z" fill="#309E3A"/>
<path d="M35.6719 21.8312L35.85 21.925C35.9625 21.9812 36.0375 22.0187 36.0656 22.0187C36.0938 22.0187 36.1313 22.0188 36.1594 22C36.1875 21.9906 36.2062 21.9625 36.225 21.925C36.2437 21.8875 36.2531 21.85 36.2438 21.8125C36.2322 21.7752 36.2092 21.7424 36.1781 21.7188C36.1233 21.6851 36.067 21.6538 36.0094 21.625L35.8219 21.5312L35.6719 21.8312Z" fill="white"/>
<path d="M39.9468 24.7844C40.0075 24.688 40.0873 24.605 40.1812 24.5406C40.2443 24.5002 40.3142 24.4717 40.3875 24.4562C40.4555 24.4424 40.5257 24.4424 40.5937 24.4562C40.6875 24.475 40.7718 24.5125 40.8562 24.5687C40.9292 24.6142 40.9919 24.6744 41.0403 24.7454C41.0887 24.8164 41.1218 24.8967 41.1375 24.9812C41.1656 25.1406 41.1187 25.3187 41.0062 25.4969C40.9121 25.6518 40.7604 25.7631 40.5843 25.8062C40.5004 25.8244 40.4136 25.8246 40.3296 25.8068C40.2456 25.789 40.1662 25.7537 40.0968 25.7031C40.0239 25.6577 39.9612 25.5975 39.9128 25.5265C39.8643 25.4555 39.8312 25.3751 39.8156 25.2906C39.7875 25.1219 39.8343 24.9531 39.9468 24.7844Z" fill="#309E3A"/>
<path d="M40.1814 24.9344C40.0876 25.0563 40.0595 25.1688 40.0782 25.2719C40.0851 25.3194 40.1021 25.3648 40.128 25.4052C40.1538 25.4457 40.188 25.4801 40.2282 25.5063C40.322 25.5719 40.4157 25.5906 40.5095 25.5625C40.6032 25.5344 40.697 25.4688 40.7814 25.3375C40.8657 25.2063 40.9032 25.0938 40.8845 25C40.8751 24.9063 40.8189 24.8219 40.7345 24.7563C40.6501 24.6906 40.547 24.6813 40.4532 24.7094C40.3595 24.7281 40.2657 24.8031 40.172 24.9344H40.1814Z" fill="white"/>
<path d="M28.2939 19.7031L28.5096 18.7844L29.1846 18.9438L29.1564 19.0938L28.6596 18.9813L28.6127 19.1875L29.0721 19.2906L29.0346 19.45L28.5752 19.3375L28.5189 19.5906L29.0346 19.7125L28.9971 19.8625L28.2939 19.7031Z" fill="#309E3A"/>
</g>
</g>
<defs>
<clipPath id="clip0_238_1554">
<rect y="0.53125" width="60" height="45" rx="6" fill="white"/>
</clipPath>
<clipPath id="clip1_238_1554">
<rect width="60" height="45" fill="white" transform="translate(0 0.53125)"/>
</clipPath>
</defs>
</svg>
