<svg width="101" height="100" viewBox="0 0 101 100" fill="none" xmlns="http://www.w3.org/2000/svg">
<path d="M50.3067 58.8163C55.1758 58.8163 59.1229 54.8691 59.1229 50.0001C59.1229 45.131 55.1758 41.1838 50.3067 41.1838C45.4376 41.1838 41.4905 45.131 41.4905 50.0001C41.4905 54.8691 45.4376 58.8163 50.3067 58.8163Z" fill="url(#paint0_linear_233_905)"/>
<path d="M50.3066 68.0626C76.4333 68.0626 97.6132 59.9757 97.6132 50C97.6132 40.0244 76.4333 31.9375 50.3066 31.9375C24.1799 31.9375 3 40.0244 3 50C3 59.9757 24.1799 68.0626 50.3066 68.0626Z" stroke="url(#paint1_linear_233_905)" stroke-width="5"/>
<path d="M34.664 59.0313C47.7274 81.6577 65.3207 95.9566 73.9599 90.9687C82.5991 85.9809 79.0126 63.5951 65.9492 40.9687C52.8858 18.3423 35.2925 4.04343 26.6533 9.03126C18.0141 14.0191 21.6006 36.4049 34.664 59.0313Z" stroke="url(#paint2_linear_233_905)" stroke-width="5"/>
<path d="M34.6533 40.9687C21.5899 63.5951 18.0034 85.9809 26.6426 90.9687C35.2817 95.9565 52.8751 81.6576 65.9385 59.0312C79.0019 36.4048 82.5884 14.0191 73.9492 9.03124C65.31 4.04341 47.7166 18.3423 34.6533 40.9687Z" stroke="url(#paint3_linear_233_905)" stroke-width="5"/>
<defs>
<linearGradient id="paint0_linear_233_905" x1="58.1223" y1="53.5917" x2="42.8632" y2="53.5503" gradientUnits="userSpaceOnUse">
<stop stop-color="#333399"/>
<stop offset="1" stop-color="#FF00CC" stop-opacity="0.7"/>
</linearGradient>
<linearGradient id="paint1_linear_233_905" x1="92.2439" y1="57.3584" x2="10.3695" y2="56.7769" gradientUnits="userSpaceOnUse">
<stop stop-color="#333399"/>
<stop offset="1" stop-color="#FF00CC" stop-opacity="0.7"/>
</linearGradient>
<linearGradient id="paint2_linear_233_905" x1="64.9027" y1="89.998" x2="24.4691" y2="18.8018" gradientUnits="userSpaceOnUse">
<stop stop-color="#333399"/>
<stop offset="1" stop-color="#FF00CC" stop-opacity="0.7"/>
</linearGradient>
<linearGradient id="paint3_linear_233_905" x1="22.9547" y1="82.6396" x2="64.3955" y2="12.025" gradientUnits="userSpaceOnUse">
<stop stop-color="#333399"/>
<stop offset="1" stop-color="#FF00CC" stop-opacity="0.7"/>
</linearGradient>
</defs>
</svg>
