<svg width="99" height="106" viewBox="0 0 99 106" fill="none" xmlns="http://www.w3.org/2000/svg">
<path d="M97.848 20.801L51.7313 104.695C50.779 106.427 48.3328 106.437 47.3664 104.713L0.335428 20.8088C-0.71763 18.9307 0.86119 16.6554 2.9535 17.0362L49.1197 25.4307C49.4142 25.4842 49.7158 25.4837 50.0102 25.4291L95.2107 17.0479C97.2961 16.6612 98.8822 18.9189 97.848 20.801Z" fill="url(#paint0_linear_233_888)"/>
<g filter="url(#filter0_d_233_888)">
<path d="M71.111 6.02462L36.9836 12.8278C36.7109 12.8821 36.4637 13.0271 36.2809 13.24C36.098 13.4528 35.9899 13.7215 35.9735 14.0037L33.8743 50.074C33.8627 50.2718 33.8967 50.4697 33.9734 50.6518C34.0502 50.834 34.1676 50.9954 34.3164 51.1233C34.4651 51.2513 34.6412 51.3421 34.8305 51.3888C35.0199 51.4354 35.2173 51.4364 35.4071 51.3919L44.9088 49.1611C45.7977 48.9524 46.6011 49.749 46.4182 50.6584L43.5953 64.7216C43.4055 65.6681 44.2787 66.4772 45.1872 66.1964L51.0561 64.3826C51.9657 64.1017 52.8401 64.9132 52.6476 65.8604L48.1615 87.9503C47.8808 89.3321 49.6874 90.0855 50.4406 88.901L50.9441 88.1098L78.7532 31.6495C79.2191 30.7042 78.4157 29.6262 77.3956 29.8268L67.6147 31.747C66.6959 31.9273 65.914 31.0565 66.1732 30.142L72.5568 7.62925C72.8164 6.71243 72.0314 5.84126 71.1114 6.02462H71.111Z" fill="white"/>
</g>
<defs>
<filter id="filter0_d_233_888" x="25.8721" y="0" width="65.0168" height="103.489" filterUnits="userSpaceOnUse" color-interpolation-filters="sRGB">
<feFlood flood-opacity="0" result="BackgroundImageFix"/>
<feColorMatrix in="SourceAlpha" type="matrix" values="0 0 0 0 0 0 0 0 0 0 0 0 0 0 0 0 0 0 127 0" result="hardAlpha"/>
<feOffset dx="2" dy="4"/>
<feGaussianBlur stdDeviation="5"/>
<feComposite in2="hardAlpha" operator="out"/>
<feColorMatrix type="matrix" values="0 0 0 0 0 0 0 0 0 0 0 0 0 0 0 0 0 0 1 0"/>
<feBlend mode="normal" in2="BackgroundImageFix" result="effect1_dropShadow_233_888"/>
<feBlend mode="normal" in="SourceGraphic" in2="effect1_dropShadow_233_888" result="shape"/>
</filter>
<linearGradient id="paint0_linear_233_888" x1="92.6015" y1="79.6268" x2="7.6432" y2="79.3727" gradientUnits="userSpaceOnUse">
<stop stop-color="#333399"/>
<stop offset="1" stop-color="#FF00CC" stop-opacity="0.7"/>
</linearGradient>
</defs>
</svg>
