<svg width="108" height="112" viewBox="0 0 108 112" fill="none" xmlns="http://www.w3.org/2000/svg">
<g filter="url(#filter0_d_233_910)">
<path d="M79.6628 33.6104L57.4486 68.1147C57.2131 68.4805 56.8725 68.7546 56.4785 68.8952C56.0844 69.0359 55.6585 69.0346 55.2653 68.8933C54.8721 68.7513 54.533 68.4759 54.2996 68.1094C54.0662 67.7423 53.951 67.3038 53.9718 66.8607L54.8609 47.8108L40.5081 44.5408C40.2014 44.471 39.9156 44.3213 39.6761 44.105C39.4365 43.8888 39.2506 43.6126 39.1347 43.301C39.0189 42.9894 38.9768 42.652 39.0121 42.3185C39.0474 41.9852 39.159 41.6661 39.337 41.3896L61.5514 6.88528C61.787 6.51924 62.1276 6.24526 62.5216 6.1048C62.9157 5.96434 63.3417 5.96507 63.7349 6.10698C64.1282 6.24883 64.4672 6.52406 64.7006 6.89096C64.934 7.25779 65.0491 7.6962 65.0283 8.1397L64.1392 27.1898L78.4918 30.4595C78.7985 30.5293 79.0844 30.679 79.3241 30.8952C79.5638 31.1115 79.7495 31.3877 79.8651 31.6993C79.9812 32.0109 80.023 32.3484 79.988 32.6817C79.953 33.0151 79.8411 33.3339 79.6628 33.6104Z" fill="white"/>
</g>
<path d="M58.0094 97.2254C57.3736 97.2261 56.7439 97.1017 56.1564 96.8583C55.569 96.6148 55.0354 96.2576 54.5864 95.8078L31.9974 73.2204C31.0938 72.3121 30.5872 71.0823 30.5889 69.8009C30.5906 68.5195 31.1004 67.2904 32.0065 66.3847C32.9126 65.4784 34.1412 64.9684 35.4226 64.9664C36.7042 64.9651 37.9341 65.4711 38.8427 66.3748L58.0094 85.5394L99.7644 43.7865C100.675 42.8909 101.902 42.3913 103.179 42.3965C104.456 42.4017 105.679 42.9113 106.581 43.8142C107.484 44.7172 107.995 45.9403 108 47.2173C108.004 48.4942 107.505 49.7215 106.609 50.6317L61.4316 95.8078C60.9827 96.2583 60.4492 96.6148 59.8619 96.8583C59.2747 97.1017 58.6451 97.2261 58.0094 97.2254Z" fill="url(#paint0_linear_233_910)"/>
<g filter="url(#filter1_d_233_910)">
<path d="M57.9901 97.2254C58.626 97.2261 59.2557 97.1017 59.8431 96.8583C60.4306 96.6148 60.9641 96.2576 61.4132 95.8078L84.0021 73.2204C84.9058 72.3121 85.4125 71.0823 85.4105 69.8009C85.4092 68.5195 84.8992 67.2904 83.9929 66.3847C83.0866 65.4784 81.8581 64.9684 80.5767 64.9664C79.2953 64.9651 78.0655 65.4711 77.1566 66.3748L57.9901 85.5394L16.2352 43.7865C15.325 42.8909 14.0977 42.3913 12.8208 42.3965C11.5438 42.4017 10.3207 42.9113 9.41775 43.8142C8.51481 44.7172 8.00524 45.9403 8.00004 47.2173C7.99484 48.4942 8.49443 49.7215 9.38999 50.6317L54.5679 95.8078C55.0168 96.2583 55.5503 96.6148 56.1376 96.8583C56.7249 97.1017 57.3544 97.2261 57.9901 97.2254Z" fill="white"/>
</g>
<defs>
<filter id="filter0_d_233_910" x="31" y="0" width="61" height="83" filterUnits="userSpaceOnUse" color-interpolation-filters="sRGB">
<feFlood flood-opacity="0" result="BackgroundImageFix"/>
<feColorMatrix in="SourceAlpha" type="matrix" values="0 0 0 0 0 0 0 0 0 0 0 0 0 0 0 0 0 0 127 0" result="hardAlpha"/>
<feOffset dx="2" dy="4"/>
<feGaussianBlur stdDeviation="5"/>
<feComposite in2="hardAlpha" operator="out"/>
<feColorMatrix type="matrix" values="0 0 0 0 0 0 0 0 0 0 0 0 0 0 0 0 0 0 0.7 0"/>
<feBlend mode="normal" in2="BackgroundImageFix" result="effect1_dropShadow_233_910"/>
<feBlend mode="normal" in="SourceGraphic" in2="effect1_dropShadow_233_910" result="shape"/>
</filter>
<filter id="filter1_d_233_910" x="0" y="36.3965" width="97.4106" height="74.829" filterUnits="userSpaceOnUse" color-interpolation-filters="sRGB">
<feFlood flood-opacity="0" result="BackgroundImageFix"/>
<feColorMatrix in="SourceAlpha" type="matrix" values="0 0 0 0 0 0 0 0 0 0 0 0 0 0 0 0 0 0 127 0" result="hardAlpha"/>
<feOffset dx="2" dy="4"/>
<feGaussianBlur stdDeviation="5"/>
<feComposite in2="hardAlpha" operator="out"/>
<feColorMatrix type="matrix" values="0 0 0 0 0 0 0 0 0 0 0 0 0 0 0 0 0 0 0.7 0"/>
<feBlend mode="normal" in2="BackgroundImageFix" result="effect1_dropShadow_233_910"/>
<feBlend mode="normal" in="SourceGraphic" in2="effect1_dropShadow_233_910" result="shape"/>
</filter>
<linearGradient id="paint0_linear_233_910" x1="103.607" y1="80.9792" x2="36.616" y2="80.7227" gradientUnits="userSpaceOnUse">
<stop stop-color="#333399"/>
<stop offset="1" stop-color="#FF00CC" stop-opacity="0.7"/>
</linearGradient>
</defs>
</svg>
