<svg width="152" height="52" viewBox="0 0 152 52" fill="none" xmlns="http://www.w3.org/2000/svg">
<circle cx="26" cy="26" r="26" fill="url(#paint0_linear_217_675)"/>
<path d="M30.7468 27.2363H37.3875V28.2031C37.3875 29.5378 37.0847 30.7422 36.4792 31.8164C35.8803 32.8906 35.047 33.7305 33.9792 34.3359C32.9115 34.9414 31.7136 35.2441 30.3855 35.2441C29.3699 35.2441 28.4161 35.0618 27.5242 34.6973C26.6322 34.3262 25.8673 33.8249 25.2292 33.1934C24.5912 32.5618 24.0867 31.8066 23.7156 30.9277C23.351 30.0423 23.1687 29.0983 23.1687 28.0957C23.1687 27.0931 23.3542 26.1523 23.7253 25.2734C24.0964 24.388 24.6042 23.6296 25.2488 22.998C25.8933 22.3665 26.6648 21.8685 27.5632 21.5039C28.4617 21.1393 29.422 20.957 30.4441 20.957C31.642 20.957 32.7455 21.1979 33.7546 21.6797C34.7703 22.1615 35.5873 22.8223 36.2058 23.6621L34.1257 25.3223C33.7091 24.7819 33.185 24.362 32.5535 24.0625C31.9285 23.7565 31.2449 23.6035 30.5027 23.6035C29.2201 23.6035 28.1492 24.0299 27.2898 24.8828C26.4304 25.7357 26.0007 26.8066 26.0007 28.0957C26.0007 29.3848 26.4272 30.459 27.28 31.3184C28.1329 32.1712 29.2006 32.5977 30.4832 32.5977C31.4727 32.5977 32.3354 32.3307 33.071 31.7969C33.8067 31.2565 34.2787 30.5566 34.4871 29.6973H30.7468V27.2363Z" fill="white"/>
<path d="M17.1602 32.4023H23.1758V35H14.3965V21.2012H17.1602V32.4023Z" fill="white"/>
<path d="M61.7031 22.7246C61.7031 23.1022 61.5957 23.4375 61.3809 23.7305C61.1725 24.0234 60.8861 24.2415 60.5215 24.3848C60.8861 24.541 61.1725 24.7656 61.3809 25.0586C61.5957 25.3516 61.7031 25.6868 61.7031 26.0645V30.1953C61.7031 30.5404 61.8008 30.8171 61.9961 31.0254C62.1979 31.2337 62.4648 31.3379 62.7969 31.3379H63.9199V33.7988H61.8008C60.9674 33.7988 60.2936 33.5417 59.7793 33.0273C59.2715 32.513 59.0176 31.8359 59.0176 30.9961V26.7383C59.0176 26.3997 58.9199 26.1296 58.7246 25.9277C58.5293 25.7194 58.2689 25.6152 57.9434 25.6152H57.1621V23.1641H57.9434C58.2624 23.1641 58.5195 23.0599 58.7148 22.8516C58.9167 22.6432 59.0176 22.373 59.0176 22.041V17.8027C59.0176 16.9629 59.2715 16.2858 59.7793 15.7715C60.2936 15.2572 60.9674 15 61.8008 15H63.9199V17.4609H62.7969C62.4648 17.4609 62.1979 17.5651 61.9961 17.7734C61.8008 17.9818 61.7031 18.2585 61.7031 18.6035V22.7246ZM145.109 23.1641H145.881V25.6152H145.109C144.784 25.6152 144.52 25.7194 144.318 25.9277C144.123 26.1296 144.025 26.3997 144.025 26.7383V30.9961C144.025 31.8359 143.768 32.513 143.254 33.0273C142.746 33.5417 142.076 33.7988 141.242 33.7988H139.123V31.3379H140.246C140.578 31.3379 140.842 31.2337 141.037 31.0254C141.239 30.8171 141.34 30.5404 141.34 30.1953V26.0645C141.34 25.6868 141.441 25.3516 141.643 25.0586C141.851 24.7591 142.137 24.5345 142.502 24.3848C142.137 24.2415 141.851 24.0234 141.643 23.7305C141.441 23.4375 141.34 23.1022 141.34 22.7246V18.6035C141.34 18.2585 141.239 17.9818 141.037 17.7734C140.842 17.5651 140.578 17.4609 140.246 17.4609H139.123V15H141.242C142.076 15 142.746 15.2572 143.254 15.7715C143.768 16.2858 144.025 16.9629 144.025 17.8027V22.041C144.025 22.373 144.126 22.6432 144.328 22.8516C144.53 23.0599 144.79 23.1641 145.109 23.1641Z" fill="url(#paint1_linear_217_675)"/>
<path d="M67.5984 30V16H69.6784V27.92H75.7084V30H67.5984ZM84.7673 30.26C83.6473 30.26 82.6707 29.9867 81.8373 29.44C81.0107 28.8933 80.3673 28.16 79.9073 27.24C79.454 26.3133 79.2273 25.2867 79.2273 24.16V16H81.3073V24.16C81.3073 24.8933 81.4407 25.5667 81.7073 26.18C81.9807 26.7867 82.374 27.2733 82.8873 27.64C83.4073 28 84.034 28.18 84.7673 28.18C85.5207 28.18 86.154 28 86.6673 27.64C87.1807 27.2733 87.5673 26.7867 87.8273 26.18C88.094 25.5667 88.2273 24.8933 88.2273 24.16V16H90.3073V24.16C90.3073 25.0067 90.1773 25.8 89.9173 26.54C89.6573 27.2733 89.284 27.92 88.7973 28.48C88.3107 29.04 87.7273 29.4767 87.0473 29.79C86.3673 30.1033 85.6073 30.26 84.7673 30.26ZM101.184 30.26C100.237 30.26 99.3472 30.0733 98.5139 29.7C97.6806 29.32 96.9472 28.8 96.3139 28.14C95.6872 27.4733 95.1939 26.7 94.8339 25.82C94.4806 24.94 94.3039 24 94.3039 23C94.3039 22 94.4806 21.06 94.8339 20.18C95.1939 19.3 95.6872 18.53 96.3139 17.87C96.9472 17.2033 97.6806 16.6833 98.5139 16.31C99.3472 15.93 100.237 15.74 101.184 15.74C102.317 15.74 103.361 16.0033 104.314 16.53C105.267 17.0567 106.057 17.7567 106.684 18.63L104.834 19.62C104.401 19.0733 103.864 18.6367 103.224 18.31C102.584 17.9833 101.904 17.82 101.184 17.82C100.517 17.82 99.8939 17.9567 99.3139 18.23C98.7339 18.5033 98.2239 18.8767 97.7839 19.35C97.3439 19.8233 97.0006 20.3733 96.7539 21C96.5072 21.6267 96.3839 22.2933 96.3839 23C96.3839 23.7133 96.5072 24.3833 96.7539 25.01C97.0006 25.63 97.3439 26.18 97.7839 26.66C98.2306 27.1333 98.7439 27.5067 99.3239 27.78C99.9039 28.0467 100.524 28.18 101.184 28.18C101.917 28.18 102.601 28.0167 103.234 27.69C103.874 27.3567 104.407 26.9167 104.834 26.37L106.684 27.38C106.057 28.2533 105.267 28.9533 104.314 29.48C103.361 30 102.317 30.26 101.184 30.26ZM115.066 16H117.496L122.586 30H120.386L119.416 27.34H113.146L112.186 30H109.976L115.066 16ZM113.916 25.26H118.646L116.276 18.76L113.916 25.26ZM130.452 30.26C129.685 30.26 128.948 30.14 128.242 29.9C127.535 29.66 126.918 29.3167 126.392 28.87C125.865 28.4167 125.488 27.88 125.262 27.26L127.212 26.53C127.325 26.85 127.542 27.1367 127.862 27.39C128.188 27.6367 128.575 27.83 129.022 27.97C129.475 28.11 129.952 28.18 130.452 28.18C130.985 28.18 131.485 28.0933 131.952 27.92C132.425 27.7467 132.805 27.5067 133.092 27.2C133.385 26.8933 133.532 26.5333 133.532 26.12C133.532 25.6933 133.378 25.3433 133.072 25.07C132.772 24.7967 132.385 24.58 131.912 24.42C131.445 24.26 130.958 24.14 130.452 24.06C129.472 23.9 128.592 23.6667 127.812 23.36C127.038 23.0533 126.425 22.6233 125.972 22.07C125.525 21.5167 125.302 20.7967 125.302 19.91C125.302 19.0767 125.538 18.35 126.012 17.73C126.492 17.11 127.122 16.63 127.902 16.29C128.688 15.9433 129.538 15.77 130.452 15.77C131.205 15.77 131.932 15.89 132.632 16.13C133.338 16.3633 133.958 16.7067 134.492 17.16C135.032 17.6067 135.418 18.15 135.652 18.79L133.682 19.5C133.568 19.1733 133.352 18.89 133.032 18.65C132.712 18.4033 132.325 18.21 131.872 18.07C131.425 17.93 130.952 17.86 130.452 17.86C129.918 17.8533 129.418 17.94 128.952 18.12C128.492 18.2933 128.115 18.5333 127.822 18.84C127.528 19.1467 127.382 19.5033 127.382 19.91C127.382 20.41 127.518 20.79 127.792 21.05C128.065 21.31 128.432 21.5033 128.892 21.63C129.358 21.75 129.878 21.86 130.452 21.96C131.372 22.1067 132.222 22.35 133.002 22.69C133.788 23.03 134.418 23.4833 134.892 24.05C135.372 24.61 135.612 25.3 135.612 26.12C135.612 26.9467 135.372 27.6733 134.892 28.3C134.418 28.92 133.788 29.4033 133.002 29.75C132.222 30.09 131.372 30.26 130.452 30.26Z" fill="white"/>
<defs>
<linearGradient id="paint0_linear_217_675" x1="26" y1="0" x2="26" y2="52" gradientUnits="userSpaceOnUse">
<stop stop-color="#FF00CC"/>
<stop offset="1" stop-color="#333399"/>
</linearGradient>
<linearGradient id="paint1_linear_217_675" x1="104" y1="11" x2="104" y2="40" gradientUnits="userSpaceOnUse">
<stop stop-color="#FF00CC"/>
<stop offset="1" stop-color="#333399"/>
</linearGradient>
</defs>
</svg>
